<svg width="158" height="158" viewBox="0 0 158 158" fill="none" xmlns="http://www.w3.org/2000/svg">
<circle cx="79" cy="79" r="79" fill="#000"/>
<path d="M99.1517 92.5881L96.5706 95.1451C96.5706 95.1451 90.4358 101.224 73.6908 84.6314C56.946 68.0392 63.0806 61.9605 63.0806 61.9605L64.7058 60.35C68.7098 56.3827 69.0872 50.0132 65.5938 45.3632L58.4484 35.8513C54.1249 30.096 45.7704 29.3357 40.8149 34.2461L31.9205 43.0594C29.4633 45.4942 27.8167 48.6504 28.0164 52.1517C28.5272 61.1092 32.594 80.382 55.287 102.868C79.3518 126.713 101.932 127.661 111.166 126.803C114.086 126.532 116.626 125.05 118.673 123.021L126.723 115.045C132.157 109.661 130.624 100.43 123.672 96.6642L112.846 90.7991C108.281 88.3263 102.719 89.0525 99.1517 92.5881Z" fill="#fff"/>
</svg>
