<svg xmlns="http://www.w3.org/2000/svg" viewBox="0 0 745.02 527.05"><defs><style>.cls-1,.cls-2{fill-rule:evenodd;}.cls-2{fill:#00aabe;}.cls-3{font-size:37.73px;fill:#fff;stroke:#1a1a18;stroke-miterlimit:5;stroke-width:0.22px;font-family:ArialNarrow-Bold, Arial;font-weight:700;}.cls-4{letter-spacing:-0.03em;}.cls-5{letter-spacing:-0.06em;}.cls-6{letter-spacing:-0.01em;}.cls-7{letter-spacing:0em;}</style></defs><g id="Layer_2" data-name="Layer 2"><g id="Layer_1-2" data-name="Layer 1"><path class="cls-1" d="M242.89,24.46s.12,25.9,2.4,27.38a8.05,8.05,0,0,0,3.15.86c-1.25-7.2-1.33-24.31-1.33-24.31h10.78a10,10,0,0,0-2-3.94Z"></path><path class="cls-1" d="M201.12,215.73s-4.18-100-6.62-113.61-2.79-18.82-6.28-32.41l-1.59-3.42h-2.5c3.36,13.2,3.74,18.48,6.15,31.9,2.44,13.59,6.62,113.61,6.62,113.61-83.29,1.74-125.81,72.13-136.61,87.12A104.89,104.89,0,0,0,48.59,320q.66,6,1.28,12.14a100.55,100.55,0,0,1,14.64-29.27C75.31,287.87,117.83,217.47,201.12,215.73Z"></path><path class="cls-1" d="M626.27,402.42H483.18l-2.07,1.3-3,2.63H630.48V382.61a10.18,10.18,0,0,0-4.6-4.69,6.3,6.3,0,0,1,.39.76Z"></path><polygon class="cls-1" points="247.04 60.83 247.04 88.88 251.26 88.88 251.26 64.76 262.34 65.05 262.34 61.23 247.04 60.83"></polygon><path class="cls-1" d="M527.18,333.34c.45,18.38,9.08,30.2,17.65,37.31-7-7.28-13.05-18-13.43-33.38,0,0,.16-9.56-2.8-9.89a5.53,5.53,0,0,0-1.85.23A34.87,34.87,0,0,1,527.18,333.34Z"></path><path class="cls-1" d="M53.56,192.82H68.94c-.22-.71-.46-1.42-.72-2.11l-1.3-1.83H49.34s-6.12,16.7,7.25,26.21C48.9,205.53,53.56,192.82,53.56,192.82Z"></path><path class="cls-1" d="M156.42,130.32c-.29-5.47,9.52-4.94,14.44-4.33a6.34,6.34,0,0,0-.43-1.69l-1-1.82s-17.58-3.39-17.19,3.9,4.17,22.53,4.17,22.53l3.26-.15C158.48,143.72,156.69,135.23,156.42,130.32Z"></path><path class="cls-1" d="M164.18,85.89h-16s-3.52,15.75,5.08,26.69H155c-5.32-10.42-2.58-22.76-2.58-22.76h13.66c-.18-.45-.36-.91-.56-1.33Z"></path><path class="cls-1" d="M306.69,325.24c2.47-6.6,5.44-15.17,12.86-24.73s22.25-29.18,24.07-32.31,3.62-10.72,3.29-19.79l-.82-5.44s-.3,5.47-4.47,14.68a23.78,23.78,0,0,1-2.22,6.61c-1.73,3-15.29,20.94-23,30.9-.65.88-1.31,1.75-2,2.63-6.74,9.07-9.6,17.2-12,23.52-2.47,6.59-4.78,18.63-4.78,18.63-5.77,16.32-4.62,31-4.29,38.58s16.82,22.58,16.82,22.58l-84.9-1.4-.9,3.85,90,1.48S298,390,297.62,382.45s-1.48-22.26,4.29-38.58C301.91,343.87,304.21,331.83,306.69,325.24Z"></path><path class="cls-1" d="M231,101.7h10.8a6.94,6.94,0,0,0-.29-2.07l-.93-1.86h-13.8s-.47,21.86,1.7,25l3.21.11C230.65,115.65,231,101.7,231,101.7Z"></path><path class="cls-1" d="M564.93,147.6h3.52c-.92-9.67,2.9-22.18,2.9-22.18H582.5l.18-3.94H567.13S562.14,137.83,564.93,147.6Z"></path><path class="cls-1" d="M130.81,147.74c-4.56-12.55-.3-21.46-.3-21.46h12.91a17.5,17.5,0,0,0-.59-2l-.65-2H126.29s-5.21,10.8,2,25.39Z"></path><path class="cls-1" d="M228.21,89.64c-.8-3-1.12-7.59-1.64-13.47-.94-10.47,3-11.27,3-11.27l9.38.11c-.2-1.39-.57-2.9-1.25-3.24l-1.35-.67-11-.14s-3.89.81-3,11.27,1.21,16.91,4.7,17.32C227.39,89.59,227.79,89.62,228.21,89.64Z"></path><path class="cls-1" d="M133.4,163.2h12.71c-.24-.79-.5-1.59-.79-2.37l-1.12-1.56h-15s-5.35,14.59,6.58,22.67C129.52,173.81,133.4,163.2,133.4,163.2Z"></path><polygon class="cls-1" points="309.76 98.2 313.98 98.2 313.98 76.21 323.57 76.21 323.57 72.28 309.76 72.28 309.76 98.2"></polygon><path class="cls-1" d="M400.17,318.15s12-31.82,1-37.76a3,3,0,0,0-1.64-1.54c6.26,9.38-3.56,35.37-3.56,35.37-8.58,24.23-34,40.06-34,40.06-14.1,10-22.31,11.82-26.92,10.14,2.68,5.65,10.76,8.22,31.13-6.21C366.2,358.21,391.59,342.39,400.17,318.15Z"></path><path class="cls-1" d="M119.7,92.56V90.73h15c-.7-2.37-1.2-3.93-1.2-3.93h-18v1.82C116.27,96.57,123,111,123,111h2.48C123.46,106.16,120.23,97.9,119.7,92.56Z"></path><path class="cls-1" d="M521.34,226.32v4.45s5.58-1.4,10,.38C529.34,227,524.78,226.22,521.34,226.32Z"></path><path class="cls-1" d="M457.61,315.86c-4.45,5.78-6.27,14-8.74,20.29s-5.61,19.78-7.75,27-1.48,37.92-1.48,37.92H362.82A80.4,80.4,0,0,1,354,405h89.86s-.66-30.66,1.48-37.92,5.28-20.77,7.75-27,4.28-14.51,8.73-20.28l.83-8.41a28.5,28.5,0,0,0-4.72,1.12Z"></path><polygon class="cls-1" points="294.65 112.87 302.25 112.87 302.25 108.94 290.44 108.94 290.44 134.86 294.65 134.86 294.65 112.87"></polygon><polygon class="cls-1" points="292.66 76.21 302.25 76.21 302.25 72.28 288.44 72.28 288.44 98.2 292.66 98.2 292.66 76.21"></polygon><path class="cls-1" d="M660.23,347.36c-20-19.95-55.23-9.4-66.44-9.57a14.56,14.56,0,0,1-7.64-2.14A14.35,14.35,0,0,0,598,341.73c11.21.16,46.49-10.39,66.44,9.56l18.13-102.88-5.32,2.34Z"></path><path class="cls-1" d="M286.36,46.53a15.16,15.16,0,0,1-.89-4.18l-2.7-38.42h-3.94l2.42,34.48C281.78,44.6,284.4,46.21,286.36,46.53Z"></path><path class="cls-1" d="M168.25,284c-5.44,4.52-22.05,18.46-27.09,24.71s-18.2,16.6-29.75,23.64a11.69,11.69,0,0,1-4.24,1.74c.5,3.37,2.5,5.82,8.46,2.19,11.55-7,24.7-17.4,29.75-23.64S167,292.48,172.47,288,188.4,269,182,259.8a5.56,5.56,0,0,0-2.88-1.18C182.2,267.7,173.18,279.94,168.25,284Z"></path><path class="cls-1" d="M164.68,380.56c-3.44-4.3-7.57-12.46-9.61-27.66l-.4-2.52s-1.08,1.25-3.06,3.4C155,372.66,161.82,378.77,164.68,380.56Z"></path><path class="cls-1" d="M222.27,28.26h12a13.63,13.63,0,0,0-.62-2.19l-.8-1.74H218.05s-1.61,21.07,3.09,27.24h2.43C221.13,43.16,222.27,28.26,222.27,28.26Z"></path><polygon class="cls-1" points="309.76 134.86 313.98 134.86 313.98 112.87 323.57 112.87 323.57 108.94 309.76 108.94 309.76 134.86"></polygon><path class="cls-1" d="M191.89,385.13l.13,5.27c-.53,14.61-10.22,12.09-10.22,12.09C156,404.3,116,401.45,98.12,400q-2.45,1.61-4.93,3.13S152,408.81,186,406.42c0,0,9.7,2.52,10.23-12.09l-.27-11A29.26,29.26,0,0,1,191.89,385.13Z"></path><path class="cls-1" d="M513.33,339.6c-5.77-1.15-12.52,8.74-12.52,8.74-3.38,4.14-7.17,4.1-9.37,3.61a4.26,4.26,0,0,0,2.37,3.29s6.1,3.3,11.21-3c0,0,6.09-8.91,11.65-8.81A15.16,15.16,0,0,0,513.33,339.6Z"></path><path class="cls-1" d="M343.25,190.91A18.06,18.06,0,0,1,347.5,196L345.06,83.82s-.87-28.93-3.14-33.46H338.7c1.53,9.26,2.14,29.52,2.14,29.52Z"></path><polygon class="cls-1" points="233.74 137.99 242.43 137.99 242.24 134.05 229.52 134.05 229.52 158.4 233.74 158.4 233.74 137.99"></polygon><polygon class="cls-1" points="394.72 149.33 398.94 149.33 398.94 125.34 408.02 125.34 408.02 121.4 394.72 121.4 394.72 149.33"></polygon><path class="cls-1" d="M667.82,67.05s-11.17,15.15-7.38,27.51H664C663.11,83.14,672,71,672,71h19.48c0-.31,0-.61,0-.94l-.2-3Z"></path><path class="cls-1" d="M443.5,278.34l-.14,4c23.58,2.15,62.65-41.54,62.65-41.54l5.28-210.37c-1.18-.14-2.64-.24-4.31-.31l-5.19,206.74S467.22,275.54,443.5,278.34Z"></path><path class="cls-1" d="M253,101.39l10.93.07.05-3.91-15.2-.09s-.62,22.17,3.72,26.2h2.26C252.56,116,253,101.39,253,101.39Z"></path><polygon class="cls-1" points="445.86 161.13 454.94 161.13 454.94 157.2 441.64 157.2 441.64 185.12 445.86 185.12 445.86 161.13"></polygon><path class="cls-1" d="M569.75,162.9h9.9l.24-3.93H565.53s-8.17,9.77-3.39,26.52h3.32C562.88,171.16,569.75,162.9,569.75,162.9Z"></path><polygon class="cls-1" points="373.94 149.33 378.16 149.33 378.16 125.34 387.24 125.34 387.24 121.4 373.94 121.4 373.94 149.33"></polygon><polygon class="cls-1" points="441.86 146.87 446.08 146.87 446.08 125.44 457.72 125.44 457.72 121.51 441.86 121.51 441.86 146.87"></polygon><path class="cls-1" d="M738.46,44.64l-.08.84c-4.62,11.05-18,49.46-22.59,64.14s-23.08,82.43-23.08,82.43c-16,4.95-37.92,15.83-49,20.61s-34.45,15.83-50.12,24.9-39.73,28-47.48,33.79a143.51,143.51,0,0,1-15.33,9.89c-13.52,5.61-17.81,21.11-19,35.61-.67,8.45,2.12,10.3,4.57,10.37a19.21,19.21,0,0,1-.35-6.43c1.15-14.51,5.44-30,19-35.61a146.59,146.59,0,0,0,15.33-9.89c7.75-5.78,31.82-24.74,47.48-33.8s39.08-20.12,50.12-24.9,33-15.66,49-20.61c0,0,18.46-67.76,23.08-82.43s18-53.09,22.58-64.13l.5-4.78Z"></path><path class="cls-1" d="M472.12,210.52s-12-3.8-18.3.16c0,0-3.63,11.87-9.07,12.86a161.5,161.5,0,0,1-36.44,1s-27.73,3.76-50.86,20.51l0,7.16c23.82-19.51,55.06-23.74,55.06-23.74a160.87,160.87,0,0,0,36.44-1c5.44-1,9.07-12.86,9.07-12.86,6.26-4,18.29-.16,18.29-.16a11.84,11.84,0,0,1,2,.87A11.69,11.69,0,0,0,472.12,210.52Z"></path><polygon class="cls-1" points="465.65 74.82 469.87 74.82 469.87 51.72 481.51 51.72 481.51 47.79 465.65 47.79 465.65 74.82"></polygon><polygon class="cls-1" points="441.86 74.93 446.08 74.93 446.08 51.84 457.72 51.84 457.72 47.9 441.86 47.9 441.86 74.93"></polygon><path class="cls-1" d="M622.76,104.34l-4.19,27.31s1.93.57,4.66,1.07L627,108.27h16.69c0-.21,0-.35,0-.35l-.4-3.58Z"></path><polygon class="cls-1" points="465.65 110.91 469.87 110.91 469.87 89.48 478.95 89.48 478.95 85.55 465.65 85.55 465.65 110.91"></polygon><path class="cls-1" d="M222.21,290.82c-1.22-6.1-4-15.51,1.92-26.66s12.2-29.62,24.4-44.26,28.4-27,53.66-32.93c0,0,25.68-6.72,39.47,2.72C329.88,174.68,298,183,298,183,272.71,189,256.5,201.33,244.31,216c-11.86,14.23-18.11,32.06-23.9,43.29a33.64,33.64,0,0,1-1,5.6c-1.1,3.93-2.14,7.2-3.15,10a59.15,59.15,0,0,0,1.72,12c1.22,6.1-1.4,13.94-4.36,20.56a43.41,43.41,0,0,0-3.31,13.77c-1,14.09-10.07,14.93-11.34,15a7.3,7.3,0,0,0,4.06,3.93s10.45.18,11.5-15a43.41,43.41,0,0,1,3.31-13.77C220.82,304.76,223.43,296.92,222.21,290.82Z"></path><polygon class="cls-1" points="441.86 111.01 446.08 111.01 446.08 89.58 457.72 89.58 457.72 85.65 441.86 85.65 441.86 111.01"></polygon><path class="cls-1" d="M80.06,178.21c-2.69-4.47-6.29-12.13-5-19.64l.91-1.43h15.3c-.89-2.37-1.55-3.93-1.55-3.93h-18l-.91,1.43c-1.95,11.59,7.69,23.57,7.69,23.57Z"></path><path class="cls-1" d="M541.24,162.5h12l-.08-3.93H537v25.52a22.55,22.55,0,0,0,4.22.7Z"></path><path class="cls-1" d="M661.67,108.27h19.6c0-.45,0-.9-.09-1.34l-1.2-2.59H657.45s-9.17,15-5.78,26.91c0,0,1.42.35,3.62.64C654.11,120.64,661.67,108.27,661.67,108.27Z"></path><polygon class="cls-1" points="378.16 162.86 387.24 162.86 387.24 158.92 373.94 158.92 373.94 186.85 378.16 186.85 378.16 162.86"></polygon><path class="cls-1" d="M58.71,153.21H38.14S34.3,169,47.41,178.66c-8-9.48-5-21.52-5-21.52H61.28A13.82,13.82,0,0,0,60,154.9Z"></path><polygon class="cls-1" points="469.87 125.34 478.95 125.34 478.95 121.4 465.65 121.4 465.65 146.77 469.87 146.77 469.87 125.34"></polygon><polygon class="cls-1" points="398.94 162.86 408.02 162.86 408.02 158.92 394.72 158.92 394.72 186.85 398.94 186.85 398.94 162.86"></polygon><path class="cls-1" d="M308.17,233.57l-1.56-.73a21.26,21.26,0,0,1,1.3,3.39c3,11.38-3.13,24.24-3.13,24.24-5.44,14.51-24.4,27.86-32.15,34.46-6.9,5.87-11.7,7.42-15.35,6.53a5.38,5.38,0,0,0,2.91,3.5c3.8,1.65,8.91.5,16.66-6.1s26.7-19.95,32.14-34.46c0,0,6.1-12.85,3.14-24.23C312.13,240.17,310.64,234.73,308.17,233.57Z"></path><path class="cls-1" d="M614.38,169.14h4.22V144.76l18.27.49c-.13-2.34-.35-3.83-.35-3.83l-22.14-.6Z"></path><path class="cls-1" d="M540.81,148h2.44c-1.73-7.88,1-22.38,1-22.38H555.3l.06-3.94H540S536,143,540.81,148Z"></path><path class="cls-1" d="M83.13,192.82H98.51c-.22-.71-.46-1.42-.72-2.11l-1.3-1.83H78.91s-6.12,16.7,7.25,26.21C78.47,205.53,83.13,192.82,83.13,192.82Z"></path><path class="cls-2" d="M357.45,245c23.13-16.75,50.86-20.51,50.86-20.51a161.5,161.5,0,0,0,36.44-1c5.44-1,9.07-12.86,9.07-12.86,6.26-4,18.3-.16,18.3-.16a11.69,11.69,0,0,1,6.18,4.8c4.31,6.61,2.22,16.63,2.22,16.63-8.4,18.63-31.15,27.2-31.15,27.2-9.9,0-9.73,4.78-9.73,4.78l-.5,14.51a20.66,20.66,0,0,0,4.36-.1c23.72-2.8,58.29-41.45,58.29-41.45L507,30.15l.09-3.63c-17.15-2-92,3.47-92,3.47V82.41L352.92,109l.33,139.31c1.38-1.13,2.78-2.2,4.2-3.23ZM408,125.34h0v24h-13.3V121.4H408v3.94Zm-20.78,0h0v24h-13.3V121.4h13.3v3.94Zm-13.3,33.58h13.3v27.93h-13.3V158.92Zm20.78,0H408v27.93h-13.3V158.92Zm86.79-107.2h0v23.1H465.65v-27h15.86v3.93ZM479,89.48h0v21.43h-13.3V85.55H479v3.93ZM457.72,51.83h0v23.1H441.86v-27h15.86v3.93Zm0,37.75h0V111H441.86V85.65h15.86v3.93Zm0,35.86h0v21.43H441.86V121.51h15.86v3.93Zm-16.08,59.68h0V157.2h13.3v27.92h-13.3Zm24-63.72H479v25.37h-13.3Z"></path><path class="cls-2" d="M441.12,363.18c2.14-7.25,5.28-20.77,7.75-27s4.29-14.51,8.74-20.29l.32-3.35.5-5.05s-4.94.66-8.08,2.64-25.55,5.76-34.45,23.08-30.5,54.57-66.11,67.92h89.85S439,370.44,441.12,363.18Z"></path><path class="cls-2" d="M362,354.28s25.38-15.83,34-40.06c0,0,9.82-26,3.56-35.37a7.18,7.18,0,0,0-2.57-2.39s-.5-1.65-3.63-2.14l-3.13-.5s-17.81.33-32.65,24.07-26,45.67-27.53,53.59c-.8,4.25-.3,11,5.07,12.94C339.68,366.1,347.89,364.26,362,354.28Z"></path><path class="cls-2" d="M511.85,316.85c1.15-14.5,5.44-30,19-35.61a143.51,143.51,0,0,0,15.33-9.89c7.75-5.77,31.82-24.73,47.48-33.79s39.08-20.12,50.12-24.9,33-15.66,49-20.61c0,0,18.46-67.76,23.08-82.43s18-53.09,22.59-64.14l.08-.84.41-3.94h-136S595.77,65.27,594,78c0,0-20.6,9.9-76.82,27.7V226.84a21.36,21.36,0,0,1,4.21-.52c3.44-.1,8,.67,10,4.83a11.4,11.4,0,0,1,1,5.25c-.33,13.52-3,26.71-14.18,44.35s-26.21,45.67-29.18,55.07c0,0-4.78,13.18.66,15.49a8.34,8.34,0,0,0,1.85.64c2.2.49,6,.53,9.37-3.61,0,0,6.75-9.89,12.52-8.74a15.16,15.16,0,0,1,3.34,3.87c2.47,3.93,4.73,10.92.46,21.36,0,0-13.52,18.47-40.23,34.95l-3,2.64H626.27V378.68a6.3,6.3,0,0,0-.39-.76c-1.15-2-5.06-6.92-14.29-4.51-11.37,3-45.83,8.9-55.72,4.28a51.83,51.83,0,0,1-11-7c-8.57-7.11-17.2-18.93-17.65-37.31a34.87,34.87,0,0,0-.43-5.73c-.37-2.11-1.07-4-2.37-4.16,0,0-3.63-.33-4.62,3a7.36,7.36,0,0,1-3.34.8c-2.45-.07-5.24-1.92-4.57-10.37ZM582.5,125.42h0l-1,22.18H564.93c-2.79-9.77,2.2-26.12,2.2-26.12h15.55l-.18,3.94Zm-27.2.2h0L555,148H540.81c-4.79-5-.8-26.32-.8-26.32h15.35l-.06,3.94ZM537,158.57h16.15l.08,3.93.32,16.81c-2.71,5.17-8.39,5.78-12.33,5.48a22.55,22.55,0,0,1-4.22-.7V158.57Zm28.51.4h14.36l-.24,3.93-1.36,22.59H562.14c-4.78-16.75,3.39-26.52,3.39-26.52Zm78.13-50.7h0a158.45,158.45,0,0,1-3.16,20.19c-1.5,6.17-11.29,5.37-17.27,4.26-2.73-.5-4.66-1.07-4.66-1.07l4.19-27.31h20.53l.4,3.58s0,.14,0,.35Zm-7.14,33.15h0s.22,1.49.35,3.83c.32,5.66.14,16.41-4.94,23.89H614.38V140.82l22.14.6Zm20.93-37.08H680l1.2,2.59c0,.44.07.89.09,1.34a44.9,44.9,0,0,1-2.68,15.81c-4.85,9-17.15,8.61-23.3,7.81-2.2-.29-3.62-.64-3.62-.64-3.39-12,5.78-26.91,5.78-26.91ZM691.52,71h0c-.73,23.76-13.73,23.58-13.73,23.58H660.44c-3.79-12.36,7.38-27.51,7.38-27.51h23.53l.2,3C691.54,70.37,691.53,70.67,691.52,71Z"></path><path class="cls-2" d="M293.4,378.52c-.33-7.59-1.48-22.26,4.29-38.58,0,0,2.31-12,4.78-18.63,2.37-6.32,5.23-14.45,12-23.52.31-.41.57-.8.89-1.21l1.09-1.42c7.69-10,21.25-27.91,23-30.9a23.78,23.78,0,0,0,2.22-6.61,54.69,54.69,0,0,0,1.08-13.17l-.83-5.44s-.66,13-15.33,32.81S290.27,322.3,276.75,330a67.78,67.78,0,0,1-34.46,9.23s-7.09-1.48-9.07,5.78-13,54.57-13,54.57l5.12.08,84.9,1.4S293.73,386.1,293.4,378.52Z"></path><path class="cls-2" d="M660.23,347.36l17-96.61,1.11-6.27S609.78,274.15,598.24,285s-18.63,12.53-18.63,42.21a16.22,16.22,0,0,0,6.54,8.41,14.56,14.56,0,0,0,7.64,2.14C605,338,640.28,327.41,660.23,347.36Z"></path><path class="cls-2" d="M196.9,211.8s-4.18-100-6.62-113.61c-2.41-13.42-2.79-18.7-6.15-31.9l-.12-.51-1.6-3.42H89.11l-8.26,64.4H0s31.36,58.55,45.65,201.43A75.64,75.64,0,0,1,48.59,320a104.89,104.89,0,0,1,11.7-21.06c10.8-15,53.32-85.38,136.61-87.12ZM63.79,178.86H47.65a2.31,2.31,0,0,1-.24-.2c-13.11-9.65-9.27-25.45-9.27-25.45H58.71L60,154.9a13.82,13.82,0,0,1,1.26,2.24c3.79,8.06,2.51,21.72,2.51,21.72Zm7-24.22h0l.91-1.43h18s.66,1.56,1.55,3.93c2.09,5.52,5.54,15.51,5.35,21.07H78.51s-9.64-12-7.69-23.57Zm8.09,34.24H96.49l1.3,1.83c.26.69.5,1.4.72,2.11,3.6,11.3,2.79,23.41,2.79,23.41H87.89c-.61-.37-1.18-.75-1.73-1.14-13.37-9.51-7.25-26.21-7.25-26.21ZM115.49,88.62h0V86.8h18s.5,1.56,1.2,3.93c1.58,5.38,4.25,15,4.79,20.29H123s-6.77-14.45-7.55-22.4Zm53.64,24H153.25c-8.6-10.94-5.08-26.69-5.08-26.69h16l1.31,2.6c.2.42.38.88.56,1.33,3.31,8.47,3.08,22.76,3.08,22.76Zm-42.84,9.77h15.89l.65,2a17.5,17.5,0,0,1,.59,2c1.81,7.35,1.49,21.46,1.49,21.46H128.25c-7.17-14.59-2-25.39-2-25.39Zm2.89,36.92h15l1.12,1.56c.29.78.55,1.58.79,2.37a62.41,62.41,0,0,1,2.21,19.43H136.86c-.38-.22-.74-.46-1.1-.69-11.93-8.08-6.58-22.67-6.58-22.67Zm23-32.89h0c-.39-7.29,17.19-3.9,17.19-3.9l1,1.82a6.34,6.34,0,0,1,.43,1.69c1,5.58,2,22.14,2,22.14l-13.28.63-3.26.15s-3.77-15.24-4.17-22.53ZM49.34,188.88H66.92l1.3,1.83c.26.69.5,1.4.72,2.11,3.6,11.3,2.79,23.41,2.79,23.41H58.32c-.61-.37-1.18-.75-1.73-1.14C43.22,205.58,49.34,188.88,49.34,188.88Z"></path><path class="cls-2" d="M272.63,294.93c7.75-6.6,26.71-19.95,32.15-34.46,0,0,6.1-12.86,3.13-24.24a21.26,21.26,0,0,0-1.3-3.39,6.78,6.78,0,0,0-2.66-3.2l-2.47-1.15s-21.1-.5-32.48,21.59-15.17,27-16.16,35.28-.66,14,3.14,15.67a7.92,7.92,0,0,0,1.3.43C260.93,302.35,265.73,300.8,272.63,294.93Z"></path><path class="cls-2" d="M141.16,308.73c5-6.25,21.65-20.19,27.09-24.71,4.93-4.08,13.95-16.32,10.9-25.4a10.6,10.6,0,0,0-1.34-2.75s-4.65-4.51-16.07,3.32c-8.17,5.61-15.93,7.85-24.43,13.41l-2.53,1.73S111.15,295.05,107,313.11c0,0-3.32,8.37-3.59,9.43-.22.9-2.65,12.45,3.73,11.57a11.69,11.69,0,0,0,4.24-1.74C123,325.33,136.11,315,141.16,308.73Z"></path><path class="cls-2" d="M181.8,402.49S191.49,405,192,390.4l-.13-5.27-.13-5.75S178.61,387,166,381.24a7,7,0,0,1-1.31-.68c-2.86-1.79-9.66-7.9-13.07-26.78-.28-1.52-.53-3.12-.76-4.81l-.4-2.53S122.7,378.58,89,399.16c0,0,3.46.34,9.15.81C116,401.45,156,404.3,181.8,402.49Z"></path><path class="cls-2" d="M210.33,321.22a43.41,43.41,0,0,1,3.31-13.77c3-6.62,5.58-14.46,4.36-20.56a59.15,59.15,0,0,1-1.72-12,30.05,30.05,0,0,1,3.63-14.63c.17-.31.34-.65.5-1,5.79-11.23,12-29.06,23.9-43.29C256.5,201.33,272.71,189,298,183c0,0,31.9-8.36,43.68,6.65a18.77,18.77,0,0,1,1.62,2.41l0-1.19-2.41-111s-.61-20.26-2.14-29.52a16.14,16.14,0,0,0-1-3.93H288.57a5.17,5.17,0,0,1-2.21.1c-2-.32-4.58-1.93-5.11-8.12L278.83,3.93,278.55,0H189.84s9.43,47.21,13.26,86.94,8.36,79.8,5.57,130.69c0,0,4.27,5.31,5,8.45s4.88,23,1.57,34.85-6.1,17.77-9.06,22.47-11.33,20.74-12.37,26.66-3,23.35,5.05,26.14H199c1.27-.05,10.37-.89,11.34-15ZM288.44,72.28h13.81V98.2H288.44V72.28Zm2,36.66h11.82v25.92H290.43V108.94Zm33.14-32.73h0v22H309.76V72.28h13.81v3.93Zm0,32.73h0v25.92H309.76V108.94ZM218.05,24.33h14.77l.8,1.74a13.63,13.63,0,0,1,.62,2.19c1.43,6.69,2.87,23.31,2.87,23.31h-16c-4.7-6.17-3.09-27.24-3.09-27.24Zm44.29,64.54H247v-28l15.3.4V88.87ZM259.52,34.8h0l1.21,16c-3.39,1.83-8.71,2.34-12.29,1.93a8.05,8.05,0,0,1-3.15-.86c-2.28-1.48-2.4-27.38-2.4-27.38h13a10,10,0,0,1,2,3.94,58.12,58.12,0,0,1,1.63,6.4ZM222.35,72.23h0c-.94-10.46,3-11.27,3-11.27l11,.14,1.35.67c.68.34,1,1.85,1.25,3.24a24.27,24.27,0,0,1,.22,2.53l-.67,22s-6.42.32-10.24.09c-.42,0-.82,0-1.16-.09-3.49-.41-3.76-6.85-4.7-17.32Zm4.38,25.54h13.8l.93,1.86a6.94,6.94,0,0,1,.29,2.07c.34,5.85-.45,21.34-.45,21.34h-3.56l-6.1-.2-3.21-.11c-2.17-3.1-1.7-25-1.7-25Zm2.79,36.28h12.71l.2,3.94.89,17.46a2.76,2.76,0,0,1-3.1,3h-10.7V134.05Zm19.23-36.59h0l15.2.09-.05,3.91-.27,22.2H252.47C248.13,119.63,248.75,97.46,248.75,97.46Z"></path><path class="cls-1" d="M1.5,473.53v-47H8.43v15.23l6.07-15.23h8.16l-7.75,17.7,8.57,29.27H15.15L10.08,454.8l-1.65,3.84v14.89ZM36,425.33q5.33,0,8.4,7.55,2.7,6.83,2.71,16.91,0,11.64-3.21,18.47-3.08,6.51-7.9,6.51-5.07,0-8.07-6.64t-3-18.47q0-11.06,3.05-17.7t8-6.63Zm0,11.45c-1.43,0-2.52,1.47-3.25,4.29a37.08,37.08,0,0,0-.86,8.72,39.82,39.82,0,0,0,.83,9c.71,3,1.83,4.55,3.34,4.55q4.17,0,4.17-13.53a34,34,0,0,0-1-8.91q-1.12-4.17-3.26-4.1Zm21.44,36.75H50.45v-47h6.92v47Zm10.79-47,7.54,25.69-.26-10.69v-15h6.65v47H75.58L68,447.84l.27,10.72v15H61.67v-47Zm17.06,20.2q0-9,3.18-15.21t8.1-6.22q4.84,0,8,6.24a33,33,0,0,1,3.2,15.16q0,10.66-4.63,16.39l0,.07h4.6v10.34H97.51v-9a44.89,44.89,0,0,0,2.71-7.35,33.15,33.15,0,0,0,.85-7.94q0-12.56-4.57-12.55T91.85,449.2a33.15,33.15,0,0,0,.85,7.94,46,46,0,0,0,2.77,7.35v9H85.22V463.19h4.62q-4.62-5.74-4.62-16.43Zm32.12-20.2,7.54,25.69-.26-10.69v-15h6.65v47h-6.51l-7.55-25.69.27,10.72v15h-6.63v-47Zm25.1,47h-6.92v-47h6.92v47Zm4.48,0v-47h6.93v15.23l6.07-15.23h8.16l-7.75,17.7,8.57,29.27h-8.33L155.5,454.8l-1.65,3.84v14.89Zm31.21,0H171.2v-47h6.93v15.88h6.57V426.56h6.92v47H184.7V455.32h-6.57v18.21Zm40-48.2q5.34,0,8.4,7.55,2.72,6.83,2.71,16.91,0,11.64-3.21,18.47-3.06,6.51-7.9,6.51-5.07,0-8.07-6.64t-3-18.47q0-11.06,3.05-17.7t8-6.63Zm0,11.45c-1.44,0-2.53,1.47-3.25,4.29a36.55,36.55,0,0,0-.86,8.72,39.25,39.25,0,0,0,.83,9c.7,3,1.82,4.55,3.34,4.55q4.17,0,4.17-13.53a34,34,0,0,0-1-8.91q-1.12-4.17-3.25-4.1ZM239,473.53H232v-47h10.2a7.35,7.35,0,0,1,6.77,4.3q2.25,4.09,2.24,11.58,0,7.8-2.12,12-2.24,4.42-6.66,4.43H239v14.63ZM239,448h2.89q2.81,0,2.8-5.47,0-5-3.71-5h-2V448Zm21.72,25.56h-6.92v-47h16.44v10.93h-9.52v36Zm17.51,0h-6.75l7.54-47.1h7l7.55,47.1h-6.9l-.79-6.18H279l-.79,6.18Zm6.51-16.07-2.24-16.91-2.15,16.91Zm17.71-30.9,7.54,25.69-.26-10.69v-15h6.66v47h-6.52l-7.55-25.69.27,10.72v15h-6.63v-47Zm17.06,20.2q0-9,3.18-15.21t8.1-6.22q4.85,0,8,6.24a32.87,32.87,0,0,1,3.2,15.16q0,10.66-4.63,16.39l0,.07H342v10.34H331.75v-9a44.89,44.89,0,0,0,2.71-7.35,33.15,33.15,0,0,0,.85-7.94q0-12.56-4.57-12.55t-4.65,12.55a33.15,33.15,0,0,0,.85,7.94,46,46,0,0,0,2.77,7.35v9H319.46V463.19h4.63q-4.63-5.74-4.63-16.43Zm33,14.28h10.7v12.49H344.36V462.36l6.42-13-6-11.91V426.56h18v10.93h-9.43l5.06,10.93L352.49,461Zm20.75,12.49h-6.93v-47h6.93v15.88h6.57V426.56h6.92v47h-6.92V455.32h-6.57v18.21Zm42.64-17.37v17.37H409V456.42l-7.87-29.86h7.75l3.65,15.94,3.63-15.94h7.66l-7.9,29.6Zm16.95,17.37H425.9v-47h19.83v47h-6.92v-36h-6v36ZM460,425.33q5.34,0,8.4,7.55,2.72,6.83,2.71,16.91,0,11.64-3.21,18.47-3.06,6.51-7.9,6.51c-3.37,0-6.07-2.21-8.07-6.64s-3-10.58-3-18.47q0-11.06,3-17.7t8-6.63Zm0,11.45q-2.16.06-3.25,4.29a36.55,36.55,0,0,0-.86,8.72,39.25,39.25,0,0,0,.83,9q1.06,4.55,3.34,4.55,4.17,0,4.17-13.53a34,34,0,0,0-1-8.91q-1.12-4.17-3.25-4.1ZM481.65,461h10.7v12.49H473.52V462.36l6.42-13-6-11.91V426.56h18v10.93h-9.43l5.07,10.93L481.65,461Zm12.7-22.18v-12.3h19.39v12.3h-6.25v34.67h-6.92V438.86Zm29.26,34.67h-6.92v-47h6.92v15.88h6.57V426.56h6.93v47h-6.93V455.32h-6.57v18.21Zm24.11,0h-6.93v-47H551c3,0,5.22,1.44,6.78,4.3s2.24,6.59,2.24,11.58q0,7.8-2.13,12-2.24,4.42-6.66,4.43h-3.5v14.63Zm0-25.56h2.89q2.79,0,2.79-5.47c0-3.34-1.23-5-3.71-5h-2V448Zm21.77,25.56h-6.92v-47h6.92v47Zm19.57-47v11.91H573.5V426.56Zm.41,35v12H573.09v-12Zm-2-17.3v11.58H575.09V444.26Zm12.29,29.27h-6.93v-47h6.93v15.88h6.57V426.56h6.92v47h-6.92V455.32h-6.57v18.21ZM624.69,461h10.69v12.49H616.55V462.36l6.43-13-6-11.91V426.56h18v10.93h-9.43l5.07,10.93L624.69,461Zm32.56-34.48,7.55,25.69-.27-10.69v-15h6.66v47h-6.51l-7.55-25.69.27,10.72v15h-6.63v-47Zm35.84,47H675.43v-47h17.24v10.93H682.36v6.77h8.72v10.93h-8.72v7.35h10.73v11Zm2.44-26.77q0-9,3.18-15.21t8.11-6.22q4.83,0,8,6.24A33,33,0,0,1,718,446.73q0,10.66-4.62,16.39l0,.07H718v10.34H707.82v-9a44,44,0,0,0,2.71-7.35,33.15,33.15,0,0,0,.85-7.94q0-12.56-4.56-12.55t-4.66,12.55a33.12,33.12,0,0,0,.86,7.94,45,45,0,0,0,2.77,7.35v9H695.53V463.19h4.63q-4.63-5.74-4.63-16.43Zm32.12-20.2,7.54,25.69-.26-10.69v-15h6.66v47h-6.51l-7.55-25.69.27,10.72v15h-6.63v-47Z"></path><text class="cls-3" transform="translate(1.07 515.38) scale(0.8 1)">ARSIS -<tspan class="cls-4" x="113.43" y="0"> </tspan><tspan x="120.91" y="0">ASSOCI</tspan><tspan class="cls-5" x="239.51" y="0">A</tspan><tspan x="259.57" y="0">TION FOR THE SOCIA</tspan><tspan class="cls-6" x="584.44" y="0">L</tspan><tspan class="cls-7" x="602.8" y="0" xml:space="preserve"> SUPPORT OF</tspan><tspan class="cls-6" x="812.53" y="0"> </tspan><tspan class="cls-7" x="820.6" y="0">YOUTH</tspan></text></g></g></svg>